<svg xmlns="http://www.w3.org/2000/svg" viewBox="0 0 730 1850" fill="#fffaec" xmlns:v="https://vecta.io/nano"
width="100%"
height="100%"
preserveAspectRatio="none">
<path d="M206.13 0v99.23c-49.27 0-59.33 20.64-59.33 36.63s12.07 32.63 47.26 32.63c110.61 0 152.84-163.82 347.91-163.82C655.59 4.67 730 56.61 730 135.2s-82.45 129.86-200.1 129.86v-97.89c46.25 0 57.31-18.65 57.31-33.3s-14.08-30.63-44.24-30.63c-104.57 0-145.8 166.49-346.9 166.49C76.42 269.71 0 217.1 0 135.19S83.46 0 206.13 0zm1 314.99h512.81v99.89H202.11c-51.28 0-57.31 18.65-57.31 32.63s6.03 32.63 57.31 32.63h517.83v99.89H207.13C85.47 580.04 0 525.43 0 447.51s85.47-132.52 207.13-132.52zm1.01 324.31h312.71C644.53 639.3 730 693.24 730 771.16s-83.46 130.53-203.11 132.52v-99.89c51.28 0 57.31-17.31 57.31-32.63s-6.03-32.63-57.31-32.63H203.11c-51.28 0-57.31 18.65-57.31 32.63s6.03 32.63 57.31 32.63h41.23v-31.97h130.72v131.86H208.14C85.47 903.68 0 849.08 0 771.16S85.47 639.3 208.14 639.3zm511.8 391.58v106.55L10.05 1238.66v-99.23l119.66-14.65v-81.91l-119.66-15.32v-99.23l709.89 102.56zm-460.52 77.25l234.28-23.31-234.28-25.31v48.61zm460.52 172.48v130.53c0 77.92-80.44 132.52-226.24 132.52h-93.51c-87.48 0-149.82-19.31-186.02-51.28l-204.12 49.95v-107.88l166.91-32.63v-21.31H10.05v-99.89h709.89zm-399.19 117.87c0 22.64 8.04 45.95 81.45 45.95h90.5c72.4 0 81.45-20.64 81.45-45.95v-17.98H320.76v17.98zm-114.62 181.81v99.23c-49.27 0-59.33 20.64-59.33 36.63s12.07 32.63 47.26 32.63c110.61 0 152.84-163.82 347.91-163.82 113.62 0 188.03 51.94 188.03 130.53s-82.45 129.86-200.1 129.86v-97.89c46.25 0 57.31-18.65 57.31-33.3s-14.08-30.63-44.24-30.63c-104.57 0-145.8 166.49-346.9 166.49C76.41 1850.02 0 1797.41 0 1715.5s83.46-135.19 206.13-135.19z"/>
</svg>