<svg xmlns="http://www.w3.org/2000/svg" viewBox="0 0 1850 730" fill="#fffaec" xmlns:v="https://vecta.io/nano"
width="100%"
height="100%"
preserveAspectRatio="none">
<path d="M0 523.87h99.23c0 49.27 20.64 59.33 36.63 59.33s32.63-12.07 32.63-47.26C168.48 425.33 4.66 383.1 4.66 188.03 4.66 74.41 56.61 0 135.19 0s129.86 82.45 129.86 200.1h-97.89c0-46.25-18.65-57.31-33.3-57.31s-30.63 14.08-30.63 44.24c0 104.57 166.49 145.8 166.49 346.9C269.72 653.59 217.11 730 135.2 730S0 646.54 0 523.87zm314.99-1V10.06h99.89v517.83c0 51.28 18.65 57.31 32.63 57.31s32.63-6.03 32.63-57.31V10.06h99.89v512.81c0 121.67-54.61 207.13-132.52 207.13s-132.52-85.47-132.52-207.13zm324.31-1.01V209.15C639.3 85.47 693.25 0 771.16 0s130.53 83.46 132.52 203.11h-99.89c0-51.28-17.31-57.31-32.63-57.31s-32.63 6.03-32.63 57.31v323.77c0 51.28 18.65 57.31 32.63 57.31s32.63-6.03 32.63-57.31v-41.23h-31.97V354.93h131.86v166.91c0 122.67-54.61 208.14-132.52 208.14S639.3 644.51 639.3 521.84zm391.58-511.8h106.55l101.22 709.89h-99.23l-14.65-119.66h-81.91l-15.32 119.66h-99.23l102.57-709.89zm77.25 460.52l-23.31-234.28-25.31 234.28h48.61zm172.48-460.52h130.53c77.92 0 132.52 80.44 132.52 226.24v93.51c0 87.48-19.31 149.82-51.28 186.02l49.95 204.12h-107.88l-32.63-166.91h-21.31v166.91h-99.89V10.06zm117.87 399.19c22.64 0 45.95-8.04 45.95-81.45v-90.5c0-72.4-20.64-81.45-45.95-81.45h-17.98v253.39h17.98zm181.81 114.62h99.23c0 49.27 20.64 59.33 36.63 59.33s32.63-12.07 32.63-47.26c0-110.61-163.82-152.84-163.82-347.91C1584.96 74.41 1636.9 0 1715.49 0s129.86 82.45 129.86 200.1h-97.89c0-46.25-18.65-57.31-33.3-57.31s-30.63 14.08-30.63 44.24c0 104.57 166.49 145.8 166.49 346.9 0 119.66-52.61 196.07-134.52 196.07s-135.19-83.46-135.19-206.13z"/>
</svg>