<svg xmlns="http://www.w3.org/2000/svg" viewBox="0 0 1870 750" fill="#fffaec" xmlns:v="https://vecta.io/nano"
width="100%"
height="100%"
preserveAspectRatio="none">
<path d="M10 533.87h99.23c0 49.27 20.64 59.33 36.63 59.33 15.32 0 32.63-12.07 32.63-47.26 0-110.61-163.82-152.84-163.82-347.91C14.66 84.41 66.61 10 145.19 10c75.25 0 129.86 82.45 129.86 200.1h-97.89c0-46.25-18.65-57.31-33.3-57.31-15.32 0-30.63 14.08-30.63 44.24 0 104.57 166.49 145.8 166.49 346.9C279.71 663.58 227.1 740 145.19 740 66.61 740 10 656.54 10 533.87zm314.99-1V20.06h99.89V537.9c0 51.28 18.65 57.31 32.63 57.31s32.63-6.03 32.63-57.31V20.06h99.89v512.81c0 121.67-54.61 207.13-132.52 207.13s-132.52-85.47-132.52-207.13zm324.31-1.01V219.15C649.3 95.47 703.25 10 781.16 10c76.58 0 130.52 83.46 132.52 203.11h-99.89c0-51.28-17.31-57.31-32.63-57.31s-32.63 6.03-32.63 57.31v323.77c0 51.28 18.65 57.31 32.63 57.31s32.63-6.03 32.63-57.31v-41.23h-31.97V364.94h131.86v166.91c0 122.67-54.61 208.14-132.52 208.14-77.91.01-131.86-85.46-131.86-208.13zm391.58-511.8h106.55l101.22 709.89h-99.23l-14.65-119.66h-81.91l-15.32 119.66h-99.23l102.57-709.89zm77.25 460.52l-23.31-234.28-25.31 234.28h48.62zm172.48-460.52h130.53c77.92 0 132.52 80.44 132.52 226.24v93.51c0 87.48-19.31 149.82-51.28 186.02l49.95 204.12h-107.88l-32.63-166.91h-21.31v166.91h-99.89V20.06zm117.88 399.18c22.64 0 45.95-8.04 45.95-81.45v-90.5c0-72.4-20.64-81.45-45.95-81.45h-17.98v253.39h17.98zm181.8 114.63h99.23c0 49.27 20.64 59.33 36.63 59.33 15.32 0 32.63-12.07 32.63-47.26 0-110.61-163.82-152.84-163.82-347.91C1594.95 84.41 1646.9 10 1725.48 10c75.25 0 129.86 82.45 129.86 200.1h-97.89c0-46.25-18.65-57.31-33.3-57.31-15.32 0-30.63 14.08-30.63 44.24 0 104.57 166.49 145.8 166.49 346.9 0 119.66-52.61 196.07-134.52 196.07-78.59 0-135.2-83.46-135.2-206.13z"/>
</svg>