<svg xmlns="http://www.w3.org/2000/svg" viewBox="0 0 750 1870" fill="#fffaec" xmlns:v="https://vecta.io/nano"
width="100%"
height="100%"
preserveAspectRatio="none">
<path d="M216.13 10v99.23c-49.27 0-59.33 20.64-59.33 36.63 0 15.32 12.07 32.63 47.26 32.63 110.61 0 152.84-163.82 347.91-163.82C665.59 14.66 740 66.61 740 145.19c0 75.25-82.45 129.86-200.1 129.86v-97.89c46.25 0 57.31-18.65 57.31-33.3 0-15.32-14.08-30.63-44.24-30.63-104.57 0-145.8 166.49-346.9 166.49C86.42 279.71 10 227.1 10 145.19 10 66.61 93.46 10 216.13 10zm1 314.99h512.81v99.89H212.11c-51.28 0-57.31 18.65-57.31 32.63s6.03 32.63 57.31 32.63h517.84v99.89H217.13C95.47 590.04 10 535.43 10 457.51c0-77.91 85.47-132.52 207.13-132.52zm1.01 324.31h312.71C654.53 649.3 740 703.25 740 781.16c0 76.58-83.46 130.53-203.11 132.52v-99.89c51.28 0 57.31-17.31 57.31-32.63s-6.03-32.63-57.31-32.63H213.11c-51.28 0-57.31 18.65-57.31 32.63s6.03 32.63 57.31 32.63h41.23v-31.97h130.72v131.86H218.14C95.47 913.68 10 859.08 10 781.16c0-77.91 85.47-131.86 208.14-131.86zm511.8 391.58v106.55L20.05 1248.66v-99.23l119.66-14.65v-81.91l-119.66-15.32v-99.23l709.89 102.56zm-460.52 77.25l234.28-23.31-234.28-25.31v48.62zm460.52 172.48v130.53c0 77.92-80.44 132.52-226.24 132.52h-93.51c-87.48 0-149.82-19.31-186.02-51.28l-204.12 49.95v-107.88l166.91-32.63v-21.31H20.05v-99.89h709.89zm-399.18 117.88c0 22.64 8.04 45.95 81.45 45.95h90.5c72.4 0 81.45-20.64 81.45-45.95v-17.98h-253.4v17.98zm-114.63 181.8v99.23c-49.27 0-59.33 20.64-59.33 36.63 0 15.32 12.07 32.63 47.26 32.63 110.61 0 152.84-163.82 347.91-163.82 113.62 0 188.03 51.94 188.03 130.53 0 75.25-82.45 129.86-200.1 129.86v-97.89c46.25 0 57.31-18.65 57.31-33.3 0-15.32-14.08-30.63-44.24-30.63-104.57 0-145.8 166.49-346.9 166.49C86.42 1860 10 1807.39 10 1725.48c0-78.58 83.46-135.19 206.13-135.19z"/>
</svg>